<?xml version="1.0" encoding="utf-8"?>
<!-- Generator: Adobe Illustrator 16.0.0, SVG Export Plug-In . SVG Version: 6.00 Build 0)  -->
<!DOCTYPE svg PUBLIC "-//W3C//DTD SVG 1.1//EN" "http://www.w3.org/Graphics/SVG/1.1/DTD/svg11.dtd">
<svg version="1.1" id="Layer_1" xmlns="http://www.w3.org/2000/svg" xmlns:xlink="http://www.w3.org/1999/xlink" x="0px" y="0px"
	 width="202px" height="92px" viewBox="0 0 202 92" enable-background="new 0 0 202 92" xml:space="preserve">
<path fill="#EFEFEF" d="M3.824,2c0,0.98-0.794,1.774-1.774,1.774S0.276,2.979,0.276,2c0-0.98,0.794-1.774,1.774-1.774
	S3.824,1.019,3.824,2"/>
<path fill="#EFEFEF" d="M43.404,2c0,0.98-0.794,1.774-1.774,1.774S39.856,2.979,39.856,2c0-0.98,0.794-1.774,1.774-1.774
	S43.404,1.019,43.404,2"/>
<path fill="#EFEFEF" d="M82.984,2c0,0.98-0.794,1.774-1.774,1.774S79.436,2.979,79.436,2c0-0.98,0.794-1.774,1.774-1.774
	S82.984,1.019,82.984,2"/>
<path fill="#EFEFEF" d="M122.563,2c0,0.98-0.793,1.774-1.773,1.774c-0.979,0-1.773-0.794-1.773-1.774s0.795-1.774,1.773-1.774
	C121.77,0.225,122.563,1.019,122.563,2"/>
<path fill="#EFEFEF" d="M162.145,2c0,0.98-0.795,1.774-1.774,1.774S158.598,2.98,158.598,2s0.793-1.774,1.772-1.774
	C161.35,0.225,162.145,1.019,162.145,2"/>
<path fill="#EFEFEF" d="M201.725,2c0,0.98-0.795,1.774-1.774,1.774S198.176,2.979,198.176,2c0-0.98,0.793-1.774,1.773-1.774
	S201.725,1.019,201.725,2"/>
<path fill="#EFEFEF" d="M3.824,30c0,0.98-0.794,1.774-1.774,1.774S0.276,30.979,0.276,30c0-0.98,0.794-1.774,1.774-1.774
	S3.824,29.019,3.824,30"/>
<path fill="#EFEFEF" d="M43.404,30c0,0.98-0.794,1.774-1.774,1.774S39.856,30.979,39.856,30c0-0.98,0.794-1.774,1.774-1.774
	S43.404,29.019,43.404,30"/>
<path fill="#EFEFEF" d="M82.984,30c0,0.98-0.794,1.774-1.774,1.774S79.436,30.979,79.436,30c0-0.98,0.794-1.774,1.774-1.774
	S82.984,29.019,82.984,30"/>
<path fill="#EFEFEF" d="M122.563,30c0,0.98-0.793,1.774-1.773,1.774c-0.979,0-1.773-0.794-1.773-1.774s0.795-1.774,1.773-1.774
	C121.77,28.225,122.563,29.019,122.563,30"/>
<path fill="#EFEFEF" d="M162.145,30c0,0.98-0.795,1.774-1.774,1.774s-1.772-0.794-1.772-1.774s0.793-1.774,1.772-1.774
	C161.35,28.225,162.145,29.019,162.145,30"/>
<path fill="#EFEFEF" d="M201.725,30c0,0.98-0.795,1.774-1.774,1.774s-1.773-0.794-1.773-1.774s0.794-1.774,1.773-1.774
	S201.725,29.019,201.725,30"/>
<path fill="#EFEFEF" d="M3.824,62c0,0.979-0.794,1.773-1.774,1.773S0.276,62.979,0.276,62c0-0.98,0.794-1.775,1.774-1.775
	S3.824,61.02,3.824,62"/>
<path fill="#EFEFEF" d="M43.404,62c0,0.979-0.794,1.773-1.774,1.773S39.856,62.979,39.856,62c0-0.98,0.794-1.775,1.774-1.775
	S43.404,61.02,43.404,62"/>
<path fill="#EFEFEF" d="M82.984,62c0,0.979-0.794,1.773-1.774,1.773S79.436,62.979,79.436,62c0-0.98,0.794-1.775,1.774-1.775
	S82.984,61.02,82.984,62"/>
<path fill="#EFEFEF" d="M122.563,62c0,0.979-0.793,1.773-1.773,1.773c-0.979,0-1.773-0.795-1.773-1.773
	c0-0.98,0.795-1.775,1.773-1.775C121.77,60.225,122.563,61.02,122.563,62"/>
<path fill="#EFEFEF" d="M162.145,62c0,0.979-0.795,1.773-1.774,1.773s-1.772-0.795-1.772-1.773c0-0.98,0.793-1.775,1.772-1.775
	S162.145,61.02,162.145,62"/>
<path fill="#EFEFEF" d="M201.725,62c0,0.979-0.795,1.773-1.774,1.773s-1.773-0.795-1.773-1.773c0-0.98,0.794-1.775,1.773-1.775
	S201.725,61.02,201.725,62"/>
<path fill="#EFEFEF" d="M3.824,90c0,0.979-0.794,1.773-1.774,1.773S0.276,90.979,0.276,90c0-0.98,0.794-1.775,1.774-1.775
	S3.824,89.02,3.824,90"/>
<path fill="#EFEFEF" d="M43.404,90c0,0.979-0.794,1.773-1.774,1.773S39.856,90.979,39.856,90c0-0.98,0.794-1.775,1.774-1.775
	S43.404,89.02,43.404,90"/>
<path fill="#EFEFEF" d="M82.984,90c0,0.979-0.794,1.773-1.774,1.773S79.436,90.979,79.436,90c0-0.98,0.794-1.775,1.774-1.775
	S82.984,89.02,82.984,90"/>
<path fill="#EFEFEF" d="M122.563,90c0,0.979-0.793,1.773-1.773,1.773c-0.979,0-1.773-0.795-1.773-1.773
	c0-0.98,0.795-1.775,1.773-1.775C121.77,88.225,122.563,89.02,122.563,90"/>
<path fill="#EFEFEF" d="M162.145,90c0,0.979-0.795,1.773-1.774,1.773s-1.772-0.795-1.772-1.773c0-0.98,0.793-1.775,1.772-1.775
	S162.145,89.02,162.145,90"/>
<path fill="#EFEFEF" d="M201.725,90c0,0.979-0.795,1.773-1.774,1.773s-1.773-0.795-1.773-1.773c0-0.98,0.794-1.775,1.773-1.775
	S201.725,89.02,201.725,90"/>
</svg>
