<?xml version="1.0" encoding="utf-8"?>
<!-- Generator: Adobe Illustrator 16.0.0, SVG Export Plug-In . SVG Version: 6.00 Build 0)  -->
<!DOCTYPE svg PUBLIC "-//W3C//DTD SVG 1.1//EN" "http://www.w3.org/Graphics/SVG/1.1/DTD/svg11.dtd">
<svg version="1.1" id="Layer_1" xmlns="http://www.w3.org/2000/svg" xmlns:xlink="http://www.w3.org/1999/xlink" x="0px" y="0px"
	 width="30px" height="30px" viewBox="0 0 30 30" enable-background="new 0 0 30 30" xml:space="preserve">
<path fill="#FFFFFF" d="M25.467,7.699v18.842c0,1.686-1.394,3.078-3.08,3.078H7.724c-1.687,0-3.079-1.393-3.079-3.078V7.699
	c0-0.44,0.293-0.733,0.733-0.733c0.439,0,0.732,0.293,0.732,0.733v18.842c0,0.879,0.734,1.613,1.613,1.613h14.663
	c0.88,0,1.613-0.734,1.613-1.613V7.699c0-0.44,0.294-0.733,0.733-0.733S25.467,7.333,25.467,7.699 M26.713,3.74H15.789V2.567
	c0-0.44-0.294-0.733-0.733-0.733c-0.44,0-0.733,0.293-0.733,0.733V3.74H3.398c-0.439,0-0.732,0.293-0.732,0.733
	c0,0.439,0.293,0.732,0.732,0.732H26.64c0.439,0,0.733-0.293,0.733-0.732C27.373,4.033,27.079,3.74,26.713,3.74"/>
</svg>
