<?xml version="1.0" encoding="utf-8"?>
<!-- Generator: Adobe Illustrator 16.0.0, SVG Export Plug-In . SVG Version: 6.00 Build 0)  -->
<!DOCTYPE svg PUBLIC "-//W3C//DTD SVG 1.1//EN" "http://www.w3.org/Graphics/SVG/1.1/DTD/svg11.dtd">
<svg version="1.1" id="Layer_1" xmlns="http://www.w3.org/2000/svg" xmlns:xlink="http://www.w3.org/1999/xlink" x="0px" y="0px"
	 width="30px" height="30px" viewBox="0 0 30 30" enable-background="new 0 0 30 30" xml:space="preserve">
<path fill="#FFFFFF" d="M13.475,14.999L3.454,4.979c-0.421-0.421-0.421-1.104,0-1.524c0.421-0.422,1.104-0.422,1.525,0L15,13.475
	L25.021,3.455c0.42-0.422,1.104-0.422,1.523,0c0.422,0.42,0.422,1.104,0,1.524l-10.02,10.02l10.02,10.021
	c0.422,0.422,0.422,1.104,0,1.525c-0.42,0.422-1.104,0.422-1.523,0L15,16.524L4.979,26.546c-0.421,0.422-1.104,0.422-1.525,0
	s-0.421-1.104,0-1.525L13.475,14.999z"/>
</svg>
