<?xml version="1.0" encoding="utf-8"?>
<!-- Generator: Adobe Illustrator 16.0.0, SVG Export Plug-In . SVG Version: 6.00 Build 0)  -->
<!DOCTYPE svg PUBLIC "-//W3C//DTD SVG 1.1//EN" "http://www.w3.org/Graphics/SVG/1.1/DTD/svg11.dtd">
<svg version="1.1" id="Layer_1" xmlns="http://www.w3.org/2000/svg" xmlns:xlink="http://www.w3.org/1999/xlink" x="0px" y="0px"
	 width="30px" height="30px" viewBox="0 0 30 30" enable-background="new 0 0 30 30" xml:space="preserve">
<path fill="#FFFFFF" d="M14.612,1.794c-3.264,0-5.909,2.598-5.909,5.799v3.864H6.405c-1.263,0-2.299,1.017-2.299,2.255V25.95
	c0,1.238,1.036,2.256,2.299,2.256h16.412c1.263,0,2.299-1.018,2.299-2.256V13.712c0-1.238-1.036-2.255-2.299-2.255H20.52V7.593
	C20.52,4.392,17.874,1.794,14.612,1.794 M14.612,3.083c2.557,0,4.595,2,4.595,4.511v3.864h-9.191V7.593
	C10.016,5.083,12.054,3.083,14.612,3.083 M6.405,12.746h16.412c0.558,0,0.985,0.42,0.985,0.967V25.95
	c0,0.547-0.428,0.967-0.985,0.967H6.405c-0.558,0-0.985-0.42-0.985-0.967V13.712C5.42,13.166,5.848,12.746,6.405,12.746"/>
</svg>
